<mxfile host="app.diagrams.net" agent="Mozilla/5.0 (Macintosh; Intel Mac OS X 10_15_7) AppleWebKit/537.36 (KHTML, like Gecko) Chrome/128.0.0.0 Safari/537.36" version="24.7.7">
  <diagram name="페이지-1" id="NHh-vi8LOOkQPcVjQhie">
    <mxGraphModel dx="2074" dy="1204" grid="1" gridSize="10" guides="1" tooltips="1" connect="1" arrows="1" fold="1" page="1" pageScale="1" pageWidth="827" pageHeight="1169" math="0" shadow="0">
      <root>
        <mxCell id="0" />
        <mxCell id="1" parent="0" />
        <mxCell id="TzYb52GIucoF5g5lfAPc-4" value="&lt;span style=&quot;font-size: 24px;&quot;&gt;Option for User&lt;/span&gt;" style="swimlane;fontStyle=0;childLayout=stackLayout;horizontal=1;startSize=30;horizontalStack=0;resizeParent=1;resizeParentMax=0;resizeLast=0;collapsible=1;marginBottom=0;whiteSpace=wrap;html=1;flipH=1;" vertex="1" parent="1">
          <mxGeometry x="276" y="40" width="276" height="120" as="geometry" />
        </mxCell>
        <mxCell id="TzYb52GIucoF5g5lfAPc-5" value="User Nickname : Slumber" style="text;strokeColor=none;fillColor=none;align=left;verticalAlign=middle;spacingLeft=4;spacingRight=4;overflow=hidden;points=[[0,0.5],[1,0.5]];portConstraint=eastwest;rotatable=0;whiteSpace=wrap;html=1;" vertex="1" parent="TzYb52GIucoF5g5lfAPc-4">
          <mxGeometry y="30" width="276" height="30" as="geometry" />
        </mxCell>
        <mxCell id="TzYb52GIucoF5g5lfAPc-6" value="Bot Name : Jack" style="text;strokeColor=none;fillColor=none;align=left;verticalAlign=middle;spacingLeft=4;spacingRight=4;overflow=hidden;points=[[0,0.5],[1,0.5]];portConstraint=eastwest;rotatable=0;whiteSpace=wrap;html=1;" vertex="1" parent="TzYb52GIucoF5g5lfAPc-4">
          <mxGeometry y="60" width="276" height="30" as="geometry" />
        </mxCell>
        <mxCell id="TzYb52GIucoF5g5lfAPc-7" value="Bot Style :&amp;nbsp; B" style="text;strokeColor=none;fillColor=none;align=left;verticalAlign=middle;spacingLeft=4;spacingRight=4;overflow=hidden;points=[[0,0.5],[1,0.5]];portConstraint=eastwest;rotatable=0;whiteSpace=wrap;html=1;" vertex="1" parent="TzYb52GIucoF5g5lfAPc-4">
          <mxGeometry y="90" width="276" height="30" as="geometry" />
        </mxCell>
        <mxCell id="TzYb52GIucoF5g5lfAPc-29" value="&lt;span style=&quot;font-size: 24px;&quot;&gt;Chat Room&lt;/span&gt;" style="swimlane;whiteSpace=wrap;html=1;startSize=40;" vertex="1" parent="1">
          <mxGeometry x="186" y="570" width="456" height="180" as="geometry" />
        </mxCell>
        <mxCell id="TzYb52GIucoF5g5lfAPc-31" value="&lt;p&gt;&lt;strong&gt;User&lt;/strong&gt;: How’s the weather today?&lt;/p&gt;&lt;p&gt;&lt;strong&gt;Bot&lt;/strong&gt;: It’s sunny and warm. Perfect for a walk!&lt;/p&gt;&lt;p&gt;&lt;strong&gt;User&lt;/strong&gt;: What do you usually do for fun?&lt;/p&gt;&lt;p&gt;&lt;strong&gt;Bot&lt;/strong&gt;: I like solving puzzles and answering questions!&lt;/p&gt;" style="text;html=1;align=left;verticalAlign=middle;resizable=0;points=[];autosize=1;strokeColor=none;fillColor=none;" vertex="1" parent="TzYb52GIucoF5g5lfAPc-29">
          <mxGeometry x="6" y="44" width="300" height="130" as="geometry" />
        </mxCell>
        <mxCell id="TzYb52GIucoF5g5lfAPc-30" value="" style="shape=image;html=1;verticalAlign=top;verticalLabelPosition=bottom;labelBackgroundColor=#ffffff;imageAspect=0;aspect=fixed;image=https://cdn0.iconfinder.com/data/icons/job-seeker/256/conversation_job_seeker_employee_unemployee_work-128.png" vertex="1" parent="TzYb52GIucoF5g5lfAPc-29">
          <mxGeometry x="316" y="44" width="128" height="128" as="geometry" />
        </mxCell>
        <mxCell id="TzYb52GIucoF5g5lfAPc-37" value="" style="html=1;shadow=0;dashed=0;align=center;verticalAlign=middle;shape=mxgraph.arrows2.arrow;dy=0.6;dx=40;notch=15;rotation=90;" vertex="1" parent="1">
          <mxGeometry x="364" y="180" width="100" height="70" as="geometry" />
        </mxCell>
        <mxCell id="TzYb52GIucoF5g5lfAPc-43" value="" style="html=1;shadow=0;dashed=0;align=center;verticalAlign=middle;shape=mxgraph.arrows2.arrow;dy=0.6;dx=40;notch=15;rotation=90;" vertex="1" parent="1">
          <mxGeometry x="364" y="480" width="100" height="70" as="geometry" />
        </mxCell>
        <mxCell id="TzYb52GIucoF5g5lfAPc-44" value="" style="group" vertex="1" connectable="0" parent="1">
          <mxGeometry x="19" y="260" width="790" height="200" as="geometry" />
        </mxCell>
        <mxCell id="TzYb52GIucoF5g5lfAPc-36" value="" style="rounded=1;whiteSpace=wrap;html=1;fillColor=none;" vertex="1" parent="TzYb52GIucoF5g5lfAPc-44">
          <mxGeometry y="10" width="790" height="190" as="geometry" />
        </mxCell>
        <mxCell id="TzYb52GIucoF5g5lfAPc-13" value="&lt;h1 style=&quot;margin-top: 0px;&quot;&gt;Prompt&lt;/h1&gt;&lt;p&gt;Blah blah&amp;nbsp;Blah blah&amp;nbsp;Blah blah&lt;/p&gt;&lt;p&gt;Blah blahBlah blah&lt;br&gt;&lt;/p&gt;&lt;p&gt;Blah blah&amp;nbsp;Blah blah&amp;nbsp;Blah blah&lt;br&gt;&lt;/p&gt;&lt;p&gt;&lt;br&gt;&lt;/p&gt;" style="text;html=1;whiteSpace=wrap;overflow=hidden;rounded=0;" vertex="1" parent="TzYb52GIucoF5g5lfAPc-44">
          <mxGeometry x="40" y="40" width="180" height="120" as="geometry" />
        </mxCell>
        <mxCell id="TzYb52GIucoF5g5lfAPc-14" value="&lt;h1 style=&quot;margin-top: 0px;&quot;&gt;Prompt&lt;/h1&gt;&lt;p&gt;Blah blah&amp;nbsp;Blah blah&amp;nbsp;Blah blah&lt;/p&gt;&lt;p&gt;Blah blahBlah blah&lt;br&gt;&lt;/p&gt;&lt;p&gt;Blah blah&amp;nbsp;Blah blah&amp;nbsp;Blah blah&lt;br&gt;&lt;/p&gt;&lt;p&gt;&lt;br&gt;&lt;/p&gt;" style="text;html=1;whiteSpace=wrap;overflow=hidden;rounded=0;" vertex="1" parent="TzYb52GIucoF5g5lfAPc-44">
          <mxGeometry x="270" y="40" width="180" height="120" as="geometry" />
        </mxCell>
        <mxCell id="TzYb52GIucoF5g5lfAPc-15" value="&lt;h1 style=&quot;margin-top: 0px;&quot;&gt;Prompt&lt;/h1&gt;&lt;p&gt;Blah blah&amp;nbsp;Blah blah&amp;nbsp;Blah blah&lt;/p&gt;&lt;p&gt;Blah blahBlah blah&lt;br&gt;&lt;/p&gt;&lt;p&gt;Blah blah&amp;nbsp;Blah blah&amp;nbsp;Blah blah&lt;br&gt;&lt;/p&gt;&lt;p&gt;&lt;br&gt;&lt;/p&gt;" style="text;html=1;whiteSpace=wrap;overflow=hidden;rounded=0;" vertex="1" parent="TzYb52GIucoF5g5lfAPc-44">
          <mxGeometry x="610" y="40" width="180" height="120" as="geometry" />
        </mxCell>
        <mxCell id="TzYb52GIucoF5g5lfAPc-19" value="" style="ellipse;whiteSpace=wrap;html=1;aspect=fixed;fillColor=#000000;" vertex="1" parent="TzYb52GIucoF5g5lfAPc-44">
          <mxGeometry x="490" y="100" width="10" height="10" as="geometry" />
        </mxCell>
        <mxCell id="TzYb52GIucoF5g5lfAPc-20" value="" style="ellipse;whiteSpace=wrap;html=1;aspect=fixed;fillColor=#000000;" vertex="1" parent="TzYb52GIucoF5g5lfAPc-44">
          <mxGeometry x="520" y="100" width="10" height="10" as="geometry" />
        </mxCell>
        <mxCell id="TzYb52GIucoF5g5lfAPc-21" value="" style="ellipse;whiteSpace=wrap;html=1;aspect=fixed;fillColor=#000000;" vertex="1" parent="TzYb52GIucoF5g5lfAPc-44">
          <mxGeometry x="550" y="100" width="10" height="10" as="geometry" />
        </mxCell>
        <mxCell id="TzYb52GIucoF5g5lfAPc-40" value="&lt;font style=&quot;font-size: 15px;&quot;&gt;Style : A&lt;/font&gt;" style="text;html=1;align=center;verticalAlign=middle;whiteSpace=wrap;rounded=0;" vertex="1" parent="TzYb52GIucoF5g5lfAPc-44">
          <mxGeometry x="141" y="50" width="60" height="30" as="geometry" />
        </mxCell>
        <mxCell id="TzYb52GIucoF5g5lfAPc-41" value="&lt;font style=&quot;font-size: 15px;&quot;&gt;Style : B&lt;/font&gt;" style="text;html=1;align=center;verticalAlign=middle;whiteSpace=wrap;rounded=0;" vertex="1" parent="TzYb52GIucoF5g5lfAPc-44">
          <mxGeometry x="371" y="50" width="60" height="30" as="geometry" />
        </mxCell>
        <mxCell id="TzYb52GIucoF5g5lfAPc-42" value="&lt;font style=&quot;font-size: 15px;&quot;&gt;Style : Z&lt;/font&gt;" style="text;html=1;align=center;verticalAlign=middle;whiteSpace=wrap;rounded=0;" vertex="1" parent="TzYb52GIucoF5g5lfAPc-44">
          <mxGeometry x="711" y="50" width="60" height="30" as="geometry" />
        </mxCell>
        <mxCell id="TzYb52GIucoF5g5lfAPc-61" value="&lt;font style=&quot;font-size: 15px;&quot;&gt;Create Chat Bot&lt;/font&gt;" style="verticalLabelPosition=bottom;aspect=fixed;html=1;shape=mxgraph.salesforce.bots;" vertex="1" parent="1">
          <mxGeometry x="276" y="470" width="60" height="57" as="geometry" />
        </mxCell>
        <mxCell id="TzYb52GIucoF5g5lfAPc-62" value="&lt;font style=&quot;font-size: 15px;&quot;&gt;Create Jornal Bot&lt;/font&gt;" style="verticalLabelPosition=bottom;aspect=fixed;html=1;shape=mxgraph.salesforce.bots;" vertex="1" parent="1">
          <mxGeometry x="276" y="760" width="60" height="57" as="geometry" />
        </mxCell>
        <mxCell id="TzYb52GIucoF5g5lfAPc-66" value="" style="html=1;shadow=0;dashed=0;align=center;verticalAlign=middle;shape=mxgraph.arrows2.arrow;dy=0.6;dx=40;notch=15;rotation=90;" vertex="1" parent="1">
          <mxGeometry x="364" y="770" width="100" height="70" as="geometry" />
        </mxCell>
        <mxCell id="TzYb52GIucoF5g5lfAPc-38" value="&lt;font style=&quot;font-size: 18px;&quot;&gt;Select Style&lt;/font&gt;" style="text;html=1;align=center;verticalAlign=middle;whiteSpace=wrap;rounded=0;fillColor=default;" vertex="1" parent="1">
          <mxGeometry x="50" y="250" width="120" height="30" as="geometry" />
        </mxCell>
        <mxCell id="TzYb52GIucoF5g5lfAPc-82" value="" style="group" vertex="1" connectable="0" parent="1">
          <mxGeometry x="19" y="865" width="790" height="190" as="geometry" />
        </mxCell>
        <mxCell id="TzYb52GIucoF5g5lfAPc-78" value="" style="rounded=1;whiteSpace=wrap;html=1;fillColor=none;" vertex="1" parent="TzYb52GIucoF5g5lfAPc-82">
          <mxGeometry width="790" height="190" as="geometry" />
        </mxCell>
        <mxCell id="TzYb52GIucoF5g5lfAPc-81" value="" style="group" vertex="1" connectable="0" parent="TzYb52GIucoF5g5lfAPc-82">
          <mxGeometry x="89" y="35" width="612" height="120" as="geometry" />
        </mxCell>
        <mxCell id="TzYb52GIucoF5g5lfAPc-47" value="&lt;font style=&quot;font-size: 24px;&quot;&gt;Today Tasks&lt;/font&gt;" style="swimlane;fontStyle=0;childLayout=stackLayout;horizontal=1;startSize=30;horizontalStack=0;resizeParent=1;resizeParentMax=0;resizeLast=0;collapsible=1;marginBottom=0;whiteSpace=wrap;html=1;" vertex="1" parent="TzYb52GIucoF5g5lfAPc-81">
          <mxGeometry width="163.33" height="120" as="geometry" />
        </mxCell>
        <mxCell id="TzYb52GIucoF5g5lfAPc-48" value="Task1" style="text;strokeColor=none;fillColor=none;align=left;verticalAlign=middle;spacingLeft=4;spacingRight=4;overflow=hidden;points=[[0,0.5],[1,0.5]];portConstraint=eastwest;rotatable=0;whiteSpace=wrap;html=1;" vertex="1" parent="TzYb52GIucoF5g5lfAPc-47">
          <mxGeometry y="30" width="163.33" height="30" as="geometry" />
        </mxCell>
        <mxCell id="TzYb52GIucoF5g5lfAPc-49" value="Task2" style="text;strokeColor=none;fillColor=none;align=left;verticalAlign=middle;spacingLeft=4;spacingRight=4;overflow=hidden;points=[[0,0.5],[1,0.5]];portConstraint=eastwest;rotatable=0;whiteSpace=wrap;html=1;" vertex="1" parent="TzYb52GIucoF5g5lfAPc-47">
          <mxGeometry y="60" width="163.33" height="30" as="geometry" />
        </mxCell>
        <mxCell id="TzYb52GIucoF5g5lfAPc-50" value="Task3" style="text;strokeColor=none;fillColor=none;align=left;verticalAlign=middle;spacingLeft=4;spacingRight=4;overflow=hidden;points=[[0,0.5],[1,0.5]];portConstraint=eastwest;rotatable=0;whiteSpace=wrap;html=1;" vertex="1" parent="TzYb52GIucoF5g5lfAPc-47">
          <mxGeometry y="90" width="163.33" height="30" as="geometry" />
        </mxCell>
        <mxCell id="TzYb52GIucoF5g5lfAPc-55" value="&lt;font style=&quot;font-size: 24px;&quot;&gt;Keywords&lt;/font&gt;" style="swimlane;fontStyle=0;childLayout=stackLayout;horizontal=1;startSize=30;horizontalStack=0;resizeParent=1;resizeParentMax=0;resizeLast=0;collapsible=1;marginBottom=0;whiteSpace=wrap;html=1;" vertex="1" parent="TzYb52GIucoF5g5lfAPc-81">
          <mxGeometry x="217" width="170" height="120" as="geometry">
            <mxRectangle x="230" y="850" width="150" height="40" as="alternateBounds" />
          </mxGeometry>
        </mxCell>
        <mxCell id="TzYb52GIucoF5g5lfAPc-56" value="Keyword1" style="text;strokeColor=none;fillColor=none;align=left;verticalAlign=middle;spacingLeft=4;spacingRight=4;overflow=hidden;points=[[0,0.5],[1,0.5]];portConstraint=eastwest;rotatable=0;whiteSpace=wrap;html=1;" vertex="1" parent="TzYb52GIucoF5g5lfAPc-55">
          <mxGeometry y="30" width="170" height="30" as="geometry" />
        </mxCell>
        <mxCell id="TzYb52GIucoF5g5lfAPc-57" value="Keyword2" style="text;strokeColor=none;fillColor=none;align=left;verticalAlign=middle;spacingLeft=4;spacingRight=4;overflow=hidden;points=[[0,0.5],[1,0.5]];portConstraint=eastwest;rotatable=0;whiteSpace=wrap;html=1;" vertex="1" parent="TzYb52GIucoF5g5lfAPc-55">
          <mxGeometry y="60" width="170" height="30" as="geometry" />
        </mxCell>
        <mxCell id="TzYb52GIucoF5g5lfAPc-58" value="Keyword3" style="text;strokeColor=none;fillColor=none;align=left;verticalAlign=middle;spacingLeft=4;spacingRight=4;overflow=hidden;points=[[0,0.5],[1,0.5]];portConstraint=eastwest;rotatable=0;whiteSpace=wrap;html=1;" vertex="1" parent="TzYb52GIucoF5g5lfAPc-55">
          <mxGeometry y="90" width="170" height="30" as="geometry" />
        </mxCell>
        <mxCell id="TzYb52GIucoF5g5lfAPc-60" value="&lt;h1 style=&quot;margin-top: 0px;&quot;&gt;&lt;span style=&quot;font-weight: normal;&quot;&gt;Gen Title&lt;/span&gt;&lt;/h1&gt;&lt;p&gt;generated jornal&amp;nbsp;&lt;/p&gt;&lt;p&gt;bot generate jornal&lt;/p&gt;&lt;p&gt;&lt;br&gt;&lt;/p&gt;" style="text;html=1;whiteSpace=wrap;overflow=hidden;rounded=0;strokeColor=default;" vertex="1" parent="TzYb52GIucoF5g5lfAPc-81">
          <mxGeometry x="432" width="180" height="120" as="geometry" />
        </mxCell>
        <mxCell id="TzYb52GIucoF5g5lfAPc-79" value="&lt;span style=&quot;font-size: 18px;&quot;&gt;Generated Result&lt;/span&gt;" style="text;html=1;align=center;verticalAlign=middle;whiteSpace=wrap;rounded=0;fillColor=default;" vertex="1" parent="1">
          <mxGeometry x="50" y="850" width="170" height="30" as="geometry" />
        </mxCell>
      </root>
    </mxGraphModel>
  </diagram>
</mxfile>
